<?xml version="1.0" encoding="utf-8"?>
<!-- Generator: Adobe Illustrator 23.0.1, SVG Export Plug-In . SVG Version: 6.00 Build 0)  -->
<svg version="1.1" id="Layer_1" xmlns="http://www.w3.org/2000/svg" xmlns:xlink="http://www.w3.org/1999/xlink" x="0px" y="0px"
	 viewBox="0 0 111 111" style="enable-background:new 0 0 111 111;" xml:space="preserve">
<path d="M55.5,0C24.8,0,0,24.8,0,55.5S24.8,111,55.5,111S111,86.2,111,55.5S86.2,0,55.5,0z M65,94.7H46V84.6H65V94.7z M65,74.1H46
	V55.2l0,0c0,0,0-0.1,0-0.1c0-5.2,4.2-9.5,9.5-9.5c5.2,0,9.5,4.2,9.5,9.5c0,5.2-4.2,9.4-9.5,9.4c0,0-0.1,0-0.2,0L65,74.1z M94.3,94.7
	H79.2V55.2c0-13.1-10.6-23.7-23.7-23.7c-13.1,0-23.7,10.7-23.7,23.7c0,4,0,6.8,0,6.8v32.8H16.6V61.9v-6.8V16.3h15.1c0,0,0,7.3,0,8.1
	c6.6-5.1,14.8-8.1,23.7-8.1c21.5,0,38.9,17.4,38.8,38.9V94.7z"/>
</svg>
