<?xml version="1.0" encoding="utf-8"?>
<!-- Generator: Adobe Illustrator 23.0.1, SVG Export Plug-In . SVG Version: 6.00 Build 0)  -->
<svg version="1.1" id="Layer_1" xmlns="http://www.w3.org/2000/svg" xmlns:xlink="http://www.w3.org/1999/xlink" x="0px" y="0px"
	 viewBox="0 0 111 111" style="enable-background:new 0 0 111 111;" xml:space="preserve">
<style type="text/css">
	.st0{fill:#FFFFFF;}
</style>
<circle cx="55.5" cy="55.5" r="55.5"/>
<g>
	<path class="st0" d="M55.5,16.28c-8.94,0-17.18,3.03-23.74,8.11c0-0.81,0-8.11,0-8.11H16.63v38.87v6.77v32.81h15.12V61.92
		c0,0,0-2.74,0-6.77c0-13.09,10.65-23.74,23.74-23.74c13.09,0,23.74,10.65,23.74,23.74v39.58h15.12V55.15
		C94.37,33.68,76.97,16.28,55.5,16.28z"/>
	<path class="st0" d="M55.5,64.48c5.22,0,9.45-4.23,9.45-9.45c0-5.22-4.23-9.45-9.45-9.45c-5.22,0-9.45,4.23-9.45,9.45
		c0,0.05,0.01,0.09,0.01,0.14l-0.01-0.01v18.91h18.9l-9.6-9.6C55.4,64.47,55.45,64.48,55.5,64.48z"/>
	<rect x="46.05" y="84.64" class="st0" width="18.9" height="10.08"/>
</g>
</svg>
