<?xml version="1.0" encoding="utf-8"?>
<!-- Generator: Adobe Illustrator 16.0.0, SVG Export Plug-In . SVG Version: 6.00 Build 0)  -->
<!DOCTYPE svg PUBLIC "-//W3C//DTD SVG 1.1//EN" "http://www.w3.org/Graphics/SVG/1.1/DTD/svg11.dtd">
<svg version="1.1" id="Layer_1" xmlns="http://www.w3.org/2000/svg" xmlns:xlink="http://www.w3.org/1999/xlink" x="0px" y="0px"
	 width="722px" height="724px" viewBox="-63.86 57.445 722 724" enable-background="new -63.86 57.445 722 724"
	 xml:space="preserve">
<linearGradient id="SVGID_1_" gradientUnits="userSpaceOnUse" x1="297.6394" y1="127.4453" x2="297.6394" y2="711.9562">
	<stop  offset="0.2398" style="stop-color:#2C2C2C"/>
	<stop  offset="0.8776" style="stop-color:#000000"/>
</linearGradient>
<path fill="url(#SVGID_1_)" d="M297.64,123.305C132.999,123.305,0,256.305,0,420.945s132.999,297.64,297.64,297.64
	s297.64-132.999,297.64-297.64S462.281,123.305,297.64,123.305z M348.587,631.17H246.693v-54.165h101.895V631.17z M348.587,520.694
	H246.693V419.336l0,0V418.8c0-27.887,22.524-50.947,50.947-50.947c27.887,0,50.947,22.524,50.947,50.947
	c0,27.887-22.524,50.411-50.947,50.411c0,0-0.536,0-1.072,0L348.587,520.694z M505.72,631.17H424.74V419.336
	c0-70.253-56.847-127.1-127.101-127.1s-127.101,57.383-127.101,127.1c0,21.452,0,36.468,0,36.468v175.902H89.024V455.268V418.8
	V210.72h80.979c0,0,0,39.149,0,43.439c35.396-27.351,79.371-43.439,127.101-43.439c115.302,0,208.616,93.314,208.08,208.616V631.17
	H505.72z"/>
</svg>
